{"title":"Star.Wars.Episode.II.Attack.of.the.Clones.2002.BRRip-VYTO","uid":12170635,"size":523469703,"categoryP":"video","categoryS":"movies","magnet":"?xt=urn:btih:04336948f90d2be71c5971402149f5a638dcb109&amp;dn=Star.Wars.Episode.II.Attack.of.the.Clones.2002.BRRip-VYTO&amp;tr=udp%3A%2F%2Ftracker.openbittorrent.com%3A80&amp;tr=udp%3A%2F%2Fopen.demonii.com%3A1337&amp;tr=udp%3A%2F%2Ftracker.coppersurfer.tk%3A6969&amp;tr=udp%3A%2F%2Fexodus.desync.com%3A6969","seeders":6,"leechers":2,"uploader":"ValidusVyto","files":7,"time":1438167979,"description":"____    ____ ____    ____ .___________.  ______   \n     /   /      /   / |           | /  __    \n    /   /      /   /  `---|  |----`|  |  |  | \n        /     _    _/       |  |     |  |  |  | \n       /        |  |         |  |     |  `--'  | \n    __/         |__|         |__|      ______/  \n                                                  \nPresenting Small Encodes with quality for years!\n                                                                                                   \n                                                                                                   \n\nStar.Wars.Episode.II.Attack.of.the.Clones.2002.BRRip.480p.x264.AAC-VYTO\n\n\nGenre: Action, Adventure, Fantasy   &lt;a href=&quot;\nhttp://www.imdb.com/title/tt0121765/&quot; rel=&quot;nofollow&quot; target=&quot;_NEW&quot;&gt;\nhttp://www.imdb.com/title/tt0121765/&lt;/a&gt;\n\n\nGeneral\nFormat                         : MPEG-4\nFile size                      : 492 MiB\nDuration                       : 2h 22mn\nOverall bit rate               : 483 Kbps\n\nVideo\nFormat                         : AVC\nBit rate                       : 440 Kbps\nWidth                          : 720 pixels\nHeight                         : 304 pixels\nDisplay aspect ratio           : 2.35:1\nFrame rate mode                : Constant\nFrame rate                     : 23.976 fps\nBit depth                      : 8 bits\nStream size                    : 448 MiB (91%)\nWriting library                : x264 core 146 r2538 121396c\n\nAudio\nFormat                         : AAC\nBit rate                       : 39.9 Kbps\nChannel(s)                     : 2 channels\nChannel positions              : Front: L R\nSampling rate                  : 48.0 KHz\nStream size                    : 40.7 MiB (8%)\nLanguage                       : English\n\nSubtitle                       : Yes (English)\nSource                         : REPACK.1080p.BluRay.DTS.x264-DON\n\n\nScreenshots:\n &lt;a href=&quot;\nhttp://ititli.com/1b&quot; rel=&quot;nofollow&quot; target=&quot;_NEW&quot;&gt;\nhttp://ititli.com/1b&lt;/a&gt; &lt;a href=&quot;\nhttp://ititli.com/1z&quot; rel=&quot;nofollow&quot; target=&quot;_NEW&quot;&gt;\nhttp://ititli.com/1z&lt;/a&gt; &lt;a href=&quot;\nhttp://ititli.com/1I&quot; rel=&quot;nofollow&quot; target=&quot;_NEW&quot;&gt;\nhttp://ititli.com/1I&lt;/a&gt; &lt;a href=&quot;\nhttp://ititli.com/1O&quot; rel=&quot;nofollow&quot; target=&quot;_NEW&quot;&gt;\nhttp://ititli.com/1O&lt;/a&gt; &lt;a href=&quot;\nhttp://ititli.com/T9&quot; rel=&quot;nofollow&quot; target=&quot;_NEW&quot;&gt;\nhttp://ititli.com/T9&lt;/a&gt; &lt;a href=&quot;\nhttp://ititli.com/TX&quot; rel=&quot;nofollow&quot; target=&quot;_NEW&quot;&gt;\nhttp://ititli.com/TX&lt;/a&gt; &lt;a href=&quot;\nhttp://ititli.com/Tq&quot; rel=&quot;nofollow&quot; target=&quot;_NEW&quot;&gt;\nhttp://ititli.com/Tq&lt;/a&gt; &lt;a href=&quot;\nhttp://ititli.com/Tr&quot; rel=&quot;nofollow&quot; target=&quot;_NEW&quot;&gt;\nhttp://ititli.com/Tr&lt;/a&gt; &lt;a href=&quot;\nhttp://ititli.com/T1&quot; rel=&quot;nofollow&quot; target=&quot;_NEW&quot;&gt;\nhttp://ititli.com/T1&lt;/a&gt; &lt;a href=&quot;\nhttp://ititli.com/TT&quot; rel=&quot;nofollow&quot; target=&quot;_NEW&quot;&gt;\nhttp://ititli.com/TT&lt;/a&gt; &lt;a href=&quot;\nhttp://ititli.com/TW&quot; rel=&quot;nofollow&quot; target=&quot;_NEW&quot;&gt;\nhttp://ititli.com/TW&lt;/a&gt; &lt;a href=&quot;\nhttp://ititli.com/Tg&quot; rel=&quot;nofollow&quot; target=&quot;_NEW&quot;&gt;\nhttp://ititli.com/Tg&lt;/a&gt;\n\n----------------------------------------------------------------------------------------------------\n\n\nEncoder Notes: Looking For Early Access To Anything You Can Provide DVDScr, R5, DVDR, BluRay, Direct\nAudio, Music Releases and Seedboxes. If You Got anything to offer please contact us.\n\nSupport us by donating BC - 1FgwdzPsd1y25Gea8wP1qni35uGCtmkRCD","torrent":{"xt":"urn:btih:04336948f90d2be71c5971402149f5a638dcb109","amp;dn":"Star.Wars.Episode.II.Attack.of.the.Clones.2002.BRRip-VYTO","amp;tr":["udp%3A%2F%2Ftracker.openbittorrent.com%3A80","udp%3A%2F%2Fopen.demonii.com%3A1337","udp%3A%2F%2Ftracker.coppersurfer.tk%3A6969","udp%3A%2F%2Fexodus.desync.com%3A6969"],"infoHash":"04336948f90d2be71c5971402149f5a638dcb109","infoHashBuffer":{"type":"Buffer","data":[4,51,105,72,249,13,43,231,28,89,113,64,33,73,245,166,56,220,177,9]},"announce":[],"urlList":[]}}